# xmcd
#
# Track frame offsets: 
#        150
#        26381
#        49153
#        70659
#        93222
#        116033
#        139746
#        160898
#        181110
#        202001
#        221704
#        241432
#        264899
#
# Disc length: 3819 seconds
#
# Revision: 0
# Processed by: cddbd v1.5.2PL0 Copyright (c) Steve Scherf et al.
# Submitted via: ExactAudioCopyFreeDBPlugin 1.0
#
DISCID=b20ee90d
DTITLE=陈瑞 - 女人心声
DYEAR=1900
DGENRE=Acid
TTITLE0=离别的车站
TTITLE1=别用下辈子安慰我
TTITLE2=吻到心伤透
TTITLE3=橘子红了
TTITLE4=爱你爱到心理面
TTITLE5=老地方的雨
TTITLE6=心不设防
TTITLE7=女人心
TTITLE8=男人不该让女人流泪
TTITLE9=挥不去的情愁
TTITLE10=心碎了无痕
TTITLE11=陪你一起老
TTITLE12=最真的梦
EXTD=
EXTT0=
EXTT1=
EXTT2=
EXTT3=
EXTT4=
EXTT5=
EXTT6=
EXTT7=
EXTT8=
EXTT9=
EXTT10=
EXTT11=
EXTT12=
PLAYORDER=
